<svg width="429.00000000000006" height="80.27938397720533" viewBox="0 0 370.00000000000006 69.23862953744982" class="looka-1j8o68f"><defs id="SvgjsDefs1019"><linearGradient id="SvgjsLinearGradient1024"><stop id="SvgjsStop1025" stop-color="#616161" offset="0"></stop><stop id="SvgjsStop1026" stop-color="#e6e7e8" offset="0.5"></stop><stop id="SvgjsStop1027" stop-color="#616161" offset="1"></stop></linearGradient><linearGradient id="SvgjsLinearGradient1028"><stop id="SvgjsStop1029" stop-color="#616161" offset="0"></stop><stop id="SvgjsStop1030" stop-color="#e6e7e8" offset="0.5"></stop><stop id="SvgjsStop1031" stop-color="#616161" offset="1"></stop></linearGradient></defs><g id="SvgjsG1020" featurekey="PG4fjM-0" transform="matrix(0.8929823475435161,0,0,0.8929823475435161,-9.648676240952938,-10.0297200018609)" fill="url(#SvgjsLinearGradient1024)"><defs xmlns="http://www.w3.org/2000/svg"></defs><path xmlns="http://www.w3.org/2000/svg" d="m63.043,88.756v-18.572c0-.652.529-1.181,1.181-1.181h9.377c.652,0,1.181.529,1.181,1.181v18.574h10.073s0-22.996,0-22.996l-15.944-13.027-15.942,13.026v22.995h10.073Zm10.076-28.647c1.992,0,3.608,1.616,3.608,3.608s-1.616,3.608-3.608,3.608-3.608-1.616-3.608-3.608,1.616-3.608,3.608-3.608h0Zm-8.413,0c1.992,0,3.608,1.616,3.608,3.608s-1.616,3.608-3.608,3.608-3.608-1.616-3.608-3.608,1.616-3.608,3.608-3.608h0Zm-3.401,14.15v10.734c0,.652-.529,1.181-1.181,1.181h-4.097c-.652,0-1.181-.529-1.181-1.181v-10.734c0-.652.529-1.181,1.181-1.181h4.097c.652,0,1.181.529,1.181,1.181h0Zm21.674,0v10.734c0,.652-.529,1.181-1.181,1.181h-4.097c-.652,0-1.181-.529-1.181-1.181v-10.734c0-.652.529-1.181,1.181-1.181h4.097c.652,0,1.181.529,1.181,1.181Z" style="fill-rule: evenodd;"></path><rect xmlns="http://www.w3.org/2000/svg" x="57.208" y="75.441" width="1.735" height="8.372"></rect><rect xmlns="http://www.w3.org/2000/svg" x="78.882" y="75.441" width="1.735" height="8.372"></rect><path xmlns="http://www.w3.org/2000/svg" d="m64.707,62.471c-.688,0-1.246.558-1.246,1.246s.558,1.246,1.246,1.246,1.246-.558,1.246-1.246-.558-1.246-1.246-1.246Z" style="fill-rule: evenodd;"></path><path xmlns="http://www.w3.org/2000/svg" d="m73.119,62.471c-.688,0-1.246.558-1.246,1.246s.558,1.246,1.246,1.246,1.246-.558,1.246-1.246-.558-1.246-1.246-1.246Z" style="fill-rule: evenodd;"></path><rect xmlns="http://www.w3.org/2000/svg" x="65.405" y="71.365" width="7.015" height="17.392"></rect><polygon xmlns="http://www.w3.org/2000/svg" points="59.49 50.768 59.49 43.786 57.755 43.786 57.755 52.179 59.49 50.768" style="fill-rule: evenodd;"></polygon><path xmlns="http://www.w3.org/2000/svg" d="m49.514,61.916v3.628c6.218-5.08,12.436-10.161,18.654-15.241.433-.352,1.056-.352,1.489,0,6.218,5.08,12.436,10.161,18.654,15.241v-3.628l-19.399-15.775c-6.466,5.259-12.932,10.517-19.399,15.775Z" style="fill-rule: evenodd;"></path><path xmlns="http://www.w3.org/2000/svg" d="m24.373,41.539c7.756,4.46,17.679,1.783,22.138-5.974,4.46-7.756,1.783-17.679-5.974-22.138-7.756-4.46-17.679-1.783-22.138,5.974-4.46,7.756-1.783,17.679,5.974,22.138h0Zm8.061-27.374c7.358-.013,13.326,5.94,13.339,13.296.013,7.358-5.94,13.326-13.296,13.339-7.358.013-13.326-5.94-13.339-13.296-.013-7.358,5.94-13.326,13.296-13.339Z" style="fill-rule: evenodd;"></path><path xmlns="http://www.w3.org/2000/svg" d="m32.434,16.518c-6.054.011-10.954,4.934-10.944,10.987.011,6.054,4.934,10.954,10.987,10.944,6.054-.011,10.954-4.934,10.944-10.987-.011-6.054-4.934-10.954-10.987-10.944h0Zm-2.676,11.028c-1.241-1.236-1.125-2.45-1.128-4.02,0-1.658,1.066-3.122,2.635-3.634v-.597c-.001-1.547,2.352-1.547,2.352,0v.592c1.86.6,2.646,2.135,2.65,4.021,0,1.547-2.353,1.547-2.353,0-.005-2.733-2.934-2.096-2.931-.382.001.795-.162,1.754.436,2.35.849.846,2.198.014,3.734,1.545,1.241,1.236,1.125,2.45,1.128,4.02.002,1.051-.425,2.006-1.114,2.697-.421.422-.941.747-1.521.937v.596c.001,1.547-2.352,1.547-2.352,0v-.591c-.479-.154-.917-.401-1.292-.718-.676-.571-1.153-1.375-1.306-2.286-.255-1.529,2.07-1.917,2.325-.387.295,1.752,2.91,1.528,2.907-.248-.001-.795.162-1.754-.436-2.35-.849-.846-2.197-.014-3.734-1.545Z" style="fill-rule: evenodd;"></path><path xmlns="http://www.w3.org/2000/svg" d="m72.637,12.12c-4.161-1.322-8.781-1.208-13.058.609,2.759.793,5.381,2.053,7.74,3.736,3.151,2.249,5.825,5.253,7.725,8.905.302.584.071,1.3-.517,1.594l-3.895,1.947,17.318,11.435,1.244-20.715-4.063,2.032c-.573.305-1.285.088-1.59-.485-2.401-4.486-6.38-7.621-10.903-9.058Z" style="fill-rule: evenodd;"></path><path xmlns="http://www.w3.org/2000/svg" d="m27.405,87.889c4.172,1.316,8.8,1.194,13.078-.634-2.767-.789-5.398-2.045-7.765-3.728-3.142-2.233-6.033-5.462-7.761-8.918-.29-.581-.055-1.287.526-1.578l3.899-1.959-17.372-11.421-1.205,20.755,4.026-2.023c.585-.33,1.313-.138,1.634.458,2.413,4.487,6.405,7.617,10.939,9.047Z" style="fill-rule: evenodd;"></path></g><g id="SvgjsG1021" featurekey="jxYttZ-0" transform="matrix(3.0587720908849745,0,0,3.0587720908849745,85.10596421702319,-11.131526709839896)" fill="url(#SvgjsLinearGradient1028)"><path d="M12.72 10.32 c0 2.28 -1.32 4.12 -3.22 4.92 l3.22 4.76 l-2.46 0 l-2.94 -4.36 l-3.5 0 l0 4.36 l-2.22 0 l0 -4.36 l0 -1.84 l0 -6.96 l0 -1.84 l2.22 0 l3.6 0 c2.94 0.02 5.3 2.3 5.3 5.32 z M3.82 6.84 l0 6.96 l3.58 0 c1.7 0 3.1 -1.44 3.1 -3.48 c0 -2.02 -1.4 -3.48 -3.1 -3.48 l-3.58 0 z M24.439999999999998 15.08 l0 0.74 l-7.78 0 c0 1.82 1.74 2.7 3.02 2.7 c0.94 0 1.98 -0.5 2.54 -1.3 l1.42 1.28 c-0.66 0.9 -1.74 1.7 -3.96 1.7 c-3.2 0 -5.16 -2.18 -5.16 -5.12 s1.9 -5.14 4.96 -5.14 s4.46 1.7 4.88 4.18 c0.06 0.32 0.08 0.64 0.08 0.96 z M16.7 14.120000000000001 l5.58 0 c0 -1.6 -1.28 -2.48 -2.8 -2.48 s-2.78 1.02 -2.78 2.48 z M35.58 14.3 l0 5.7 l-2.06 0 l0 -5.5 c0 -2 -0.62 -2.88 -2.32 -2.88 c-1.92 0 -2.7 1.34 -2.7 3.08 l0 5.3 l-2.06 0 l0 -9.88 l2.06 0 l0 1.6 c0.28 -0.88 1.52 -1.68 2.7 -1.76 c2.68 -0.2 4.38 1.1 4.38 4.34 z M42.120000000000005 18.36 c0.64 0.26 1.14 0.08 1.44 -0.06 l0 1.6 c-0.26 0.16 -0.64 0.3 -1.18 0.3 c-1.18 0 -2.22 -0.38 -2.86 -1.42 c-0.6 -1 -0.6 -1.54 -0.6 -3.1 l0 -3.88 l-1.2 0 l0 -1.68 l1.2 0 l0 -3.12 l2.06 0 l0 3.12 l2.58 0 l0 1.68 l-2.58 0 l0 3.88 c0 1.64 0.16 2.24 1.14 2.68 z M62.660000000000004 14.5 c0.06 0.14 0.54 1.5 -0.08 2.92 c-0.72 1.7 -2.74 2.76 -5.26 2.78 c-2.18 0 -4.16 -0.96 -5.56 -2.48 l1.48 -1.48 c0.7 1.24 2.48 2.12 4.08 2.12 c1.74 -0.02 2.76 -0.66 3.18 -1.66 c0.32 -0.74 0.06 -1.54 0.04 -1.56 c-0.42 -1.16 -1.58 -1.42 -3.22 -1.92 c-1.86 -0.56 -4 -1.02 -4.7 -2.98 c-0.38 -1.02 -0.28 -2.2 0.24 -3.16 c1.16 -2.2 4.12 -2.26 4.46 -2.26 c2.2 0 4.16 0.96 5.56 2.5 l-1.46 1.46 c-0.82 -1.2 -2.42 -2.12 -4.1 -2.12 c-0.02 0 -1.78 0 -2.46 1.28 c-0.26 0.5 -0.32 1.16 -0.14 1.68 c0.4 1.1 1.54 1.36 3.14 1.84 c1.9 0.58 4.04 1.02 4.8 3.04 z M75.16000000000001 15.08 c0 2.94 -2.12 5.12 -4.96 5.12 c-0.96 0 -2.18 -0.4 -2.84 -0.94 l0 5.84 l-2.06 0 l0 -14.98 l2.06 0 l0 0.78 c0.78 -0.6 1.88 -0.96 2.84 -0.96 c2.84 0 4.96 2.2 4.96 5.14 z M73.08000000000001 15.08 c0 -2.02 -1.38 -3.44 -3.08 -3.44 c-1.12 0 -2.1 0.5 -2.64 1.58 c-0.26 0.54 -0.42 1.18 -0.42 1.86 s0.16 1.32 0.42 1.86 c0.54 1.06 1.52 1.58 2.64 1.58 c1.7 0 3.08 -1.44 3.08 -3.44 z M79.64000000000001 4.619999999999999 l0 15.38 l-2.08 0 l0 -15.38 l2.08 0 z M85.00000000000001 10.12 l0 9.88 l-2.06 0 l0 -9.88 l2.06 0 z M85.10000000000001 6.5 c0 0.64 -0.5 1.14 -1.14 1.14 c-0.62 0 -1.12 -0.5 -1.12 -1.14 c0 -0.62 0.5 -1.12 1.12 -1.12 c0.64 0 1.14 0.5 1.14 1.12 z M91.70000000000002 18.36 c0.64 0.26 1.14 0.08 1.44 -0.06 l0 1.6 c-0.26 0.16 -0.64 0.3 -1.18 0.3 c-1.18 0 -2.22 -0.38 -2.86 -1.42 c-0.6 -1 -0.6 -1.54 -0.6 -3.1 l0 -3.88 l-1.2 0 l0 -1.68 l1.2 0 l0 -3.12 l2.06 0 l0 3.12 l2.58 0 l0 1.68 l-2.58 0 l0 3.88 c0 1.64 0.16 2.24 1.14 2.68 z"></path></g></svg>